<?xml version="1.0" ?><svg data-name="004_Basic" id="_004_Basic" viewBox="0 0 128 128" xmlns="http://www.w3.org/2000/svg"><defs><style>.cls-1{opacity:0.3;}.cls-2{fill:#75859e;}.cls-3{fill:#fff;}</style></defs><title/><g class="cls-1"><path class="cls-2" d="M126.18658,47.6883A30.00066,30.00066,0,0,0,102.675,22.643a19.68993,19.68993,0,0,1-10.93272-6.5483,37.01082,37.01082,0,0,0-64.3266,15.6822,19.56717,19.56717,0,0,1-10.4271,13.1674,28.00248,28.00248,0,1,0,37.6671,37.3434,9.41332,9.41332,0,0,1,8.5157-5.2915q.43005.0033.8597-.0035a12.3934,12.3934,0,0,1,12.0318,9.7375,20.00357,20.00357,0,0,0,26.0572,14.1436A19.9833,19.9833,0,0,0,115.468,82.9741a21.38361,21.38361,0,0,1,4.52488-12.324A29.90939,29.90939,0,0,0,126.18658,47.6883Z"/><path class="cls-3" d="M48.583,31.4965a11.292,11.292,0,0,0-21.79142-5.194A6.02521,6.02521,0,0,0,17.02488,31c0,.1734.0117.3439.0262.5136A8.99028,8.99028,0,0,0,20.03738,49h25.6062A8.99085,8.99085,0,0,0,48.583,31.4965Z"/><path class="cls-2" d="M45.64355,50H20.0376a9.98912,9.98912,0,0,1-4.01074-19.15869,7.029,7.029,0,0,1,10.32177-6.021A12.29738,12.29738,0,0,1,49.65625,30.25c0,.19141-.00488.38574-.01563.58447A9.98969,9.98969,0,0,1,45.64355,50ZM23.0498,26a5.01844,5.01844,0,0,0-5.0249,5c0,.14453.01026.28613.02246.42773a.99967.99967,0,0,1-.6665,1.03028A7.99008,7.99008,0,0,0,20.0376,48H45.64355a7.99091,7.99091,0,0,0,2.61524-15.55762,1.00075,1.00075,0,0,1-.66992-1.05615A10.2147,10.2147,0,0,0,37.35938,20a10.34106,10.34106,0,0,0-9.63233,6.65527.99949.99949,0,0,1-1.55615.43164A4.98463,4.98463,0,0,0,23.0498,26Z"/><path class="cls-3" d="M45.64358,31a9.05869,9.05869,0,0,1,2.9641.4952"/><path class="cls-2" d="M48.60791,32.49561a1.00646,1.00646,0,0,1-.32666-.05518A8.05154,8.05154,0,0,0,45.64355,32a1,1,0,0,1,0-2,10.061,10.061,0,0,1,3.291.5498,1.00037,1.00037,0,0,1-.32666,1.94581Z"/><path class="cls-3" d="M17.04968,31.5035A9.05552,9.05552,0,0,1,20.03738,31"/><path class="cls-2" d="M17.0498,32.50391a1.00038,1.00038,0,0,1-.32959-1.94483A10.04846,10.04846,0,0,1,20.0376,30a1,1,0,0,1,0,2,8.039,8.039,0,0,0-2.65821.44775A.99914.99914,0,0,1,17.0498,32.50391Z"/><path class="cls-3" d="M26.752,26.266a6.03212,6.03212,0,0,1,1.63858,1.9541"/><path class="cls-2" d="M28.3916,29.22021a.99983.99983,0,0,1-.88574-.53417,5.06184,5.06184,0,0,0-1.36719-1.62989,1.00014,1.00014,0,1,1,1.22656-1.58008,7.084,7.084,0,0,1,1.91016,2.27832,1.00006,1.00006,0,0,1-.88379,1.46582Z"/><path class="cls-3" d="M94.61208,19.6615a6.02244,6.02244,0,0,1,11.6221-2.7702,3.2135,3.2135,0,0,1,5.2089,2.5054c0,.0925-.0062.1834-.014.2739a4.79481,4.79481,0,0,1-1.5927,9.3261H96.17978a4.79512,4.79512,0,0,1-1.5677-9.3352Z"/><path class="cls-2" d="M109.83643,29.99658H96.17969a5.79426,5.79426,0,0,1-2.60645-10.98193v-.01807a7.02489,7.02489,0,0,1,13.09912-3.5039,4.22007,4.22007,0,0,1,5.75244,3.51367,5.79386,5.79386,0,0,1-2.58837,10.99023Zm-9.23829-16a4.984,4.984,0,0,0-4.99218,5.5542.99933.99933,0,0,1-.66944,1.05664,3.79507,3.79507,0,0,0,1.24317,7.38916h13.65674a3.79479,3.79479,0,0,0,1.26318-7.38183,1,1,0,0,1-.6665-1.03028c.00537-.062.00976-.12451.00976-.188a2.21378,2.21378,0,0,0-3.58838-1.72119.99933.99933,0,0,1-1.55566-.43115A5.04733,5.04733,0,0,0,100.59814,13.99658Z"/><path class="cls-3" d="M96.17978,19.3967a4.83179,4.83179,0,0,0-1.58078.2641"/><path class="cls-2" d="M94.59912,20.66113a1.0003,1.0003,0,0,1-.32617-1.9458,5.83328,5.83328,0,0,1,1.90674-.31885,1,1,0,0,1,0,2,3.83175,3.83175,0,0,0-1.2544.20948A1.00357,1.00357,0,0,1,94.59912,20.66113Z"/><path class="cls-3" d="M111.42988,19.6652a4.832,4.832,0,0,0-1.5935-.2685"/><path class="cls-2" d="M111.42969,20.66553a.99443.99443,0,0,1-.3291-.05615,3.83483,3.83483,0,0,0-1.26416-.2129,1,1,0,0,1,0-2,5.81969,5.81969,0,0,1,1.92236.32422,1.00032,1.00032,0,0,1-.3291,1.94483Z"/><path class="cls-3" d="M106.25528,16.8719a3.21635,3.21635,0,0,0-.8739,1.0422"/><path class="cls-2" d="M105.38037,18.91406a.99992.99992,0,0,1-.88428-1.46533,4.24418,4.24418,0,0,1,1.146-1.36621.99975.99975,0,0,1,1.22656,1.5791,2.23039,2.23039,0,0,0-.60205.71777A1.0001,1.0001,0,0,1,105.38037,18.91406Z"/><path class="cls-3" d="M86.26578,56.015a7.98435,7.98435,0,0,1,11.8754-8.8473,10.48935,10.48935,0,0,1,18.8025,5.2506,7.49625,7.49625,0,0,1-2.4432,14.5843l-28.0009.0002a5.49632,5.49632,0,0,1-.2338-10.9878Z"/><path class="cls-3" d="M86.26578,53.0146c-.04778-.1844-.076-.3761-.1119-.565-.0384.195-.0666.3936-.0905.5935C86.13208,53.0376,86.19638,53.0176,86.26578,53.0146Z"/><path class="cls-2" d="M86.49951,68.00293a6.49743,6.49743,0,0,1-1.41943-12.83838,8.69308,8.69308,0,0,1-.07959-1.16211A8.98656,8.98656,0,0,1,97.89062,45.895a11.48966,11.48966,0,0,1,19.96827,5.80615,8.49583,8.49583,0,0,1-3.3584,16.30127Zm7.50049-21a6.97384,6.97384,0,0,0-6.7666,8.76123.99939.99939,0,0,1-.92578,1.25,4.49637,4.49637,0,0,0,.19189,8.98877l28.001-.00049a6.4961,6.4961,0,0,0,2.11719-12.63867.99936.99936,0,0,1-.66846-.84326A9.49,9.49,0,0,0,98.9375,47.772a1.00139,1.00139,0,0,1-1.31543.25049A6.98157,6.98157,0,0,0,94,47.00293Z"/><path class="cls-2" d="M116.48682,57.75244a1.00047,1.00047,0,0,1-.95069-1.31006A9.50748,9.50748,0,0,0,106.5,44.00293a1,1,0,0,1,0-2,11.50646,11.50646,0,0,1,10.9375,15.05859A1.00026,1.00026,0,0,1,116.48682,57.75244Z"/><path class="cls-2" d="M90.12158,58.36475a.99579.99579,0,0,1-.65869-.248,4.49483,4.49483,0,0,0-2.96338-1.11328,1,1,0,0,1,0-2,6.49235,6.49235,0,0,1,4.28174,1.60937,1,1,0,0,1-.65967,1.752Z"/><path class="cls-2" d="M100.50488,50.34473a.99914.99914,0,0,1-.81347-.417A7.02076,7.02076,0,0,0,94,47.00293a1,1,0,0,1,0-2,9.02525,9.02525,0,0,1,7.31641,3.75879,1,1,0,0,1-.81153,1.583Z"/><path class="cls-3" d="M118,78a1.05234,1.05234,0,0,1-.71-.29c-.04-.05029-.08008-.1001-.12012-.16016a.553.553,0,0,1-.09033-.16992.60371.60371,0,0,1-.05957-.18994A1.19474,1.19474,0,0,1,117,77a.9996.9996,0,0,1,.07959-.38037A.9317.9317,0,0,1,117.29,76.29a1.04669,1.04669,0,0,1,1.41992,0,.9375.9375,0,0,1,.21.32959A.99993.99993,0,0,1,119,77a1.25325,1.25325,0,0,1-.02.18994.617.617,0,0,1-.06006.18994.553.553,0,0,1-.09033.16992c-.03955.06006-.07959.10987-.11963.16016A1.05326,1.05326,0,0,1,118,78Z"/><path class="cls-3" d="M115.99805,81.99951h-6a1,1,0,0,1,0-2h6a1,1,0,0,1,0,2Z"/><path class="cls-3" d="M113.99756,77.999h-6.999a1,1,0,0,1,0-2h6.999a1,1,0,0,1,0,2Z"/><path class="cls-3" d="M105.99707,81.999h-1.999a1,1,0,0,1,0-2h1.999a1,1,0,0,1,0,2Z"/><path class="cls-3" d="M113.99805,86h-8.00049a1,1,0,0,1,0-2h8.00049a1,1,0,0,1,0,2Z"/><path class="cls-3" d="M24,76.02979a1.02458,1.02458,0,0,1-1-1,1.0509,1.0509,0,0,1,.07959-.39014,1.07027,1.07027,0,0,1,.54-.54,1.02187,1.02187,0,0,1,1.09033.22021,1.002,1.002,0,0,1,0,1.41016A.99909.99909,0,0,1,24,76.02979Z"/><path class="cls-3" d="M25.001,72.0249h-2a1,1,0,0,1,0-2h2a1,1,0,0,1,0,2Z"/><path class="cls-3" d="M28.001,68.02393H18.00146a1,1,0,1,1,0-2H28.001a1,1,0,0,1,0,2Z"/><path class="cls-3" d="M19.00049,72.02393H15.001a1,1,0,1,1,0-2h3.99951a1,1,0,0,1,0,2Z"/><path class="cls-3" d="M20.00049,76.02539H12a1,1,0,0,1,0-2h8.00049a1,1,0,0,1,0,2Z"/><path class="cls-2" d="M108.49951,118.00049H24a1,1,0,0,1,0-2h84.49951a1,1,0,0,1,0,2Z"/><path class="cls-2" d="M112.49951,118.00049h-.999a1,1,0,0,1,0-2h.999a1,1,0,0,1,0,2Z"/><path class="cls-2" d="M14.99805,118.00049H14a1,1,0,0,1,0-2h.998a1,1,0,0,1,0,2Z"/><path class="cls-2" d="M20.999,118.00049H17.99951a1,1,0,0,1,0-2H20.999a1,1,0,0,1,0,2Z"/></g><path class="cls-2" d="M57.75278,36.8608l-35.0065,70.0131a6.98416,6.98416,0,0,0,6.2468,10.1075h70.0131a6.9842,6.9842,0,0,0,6.24682-10.1075L70.24638,36.8608A6.9841,6.9841,0,0,0,57.75278,36.8608Z"/><path class="cls-2" d="M99.00635,117.98145H28.99316a7.9842,7.9842,0,0,1-7.1416-11.55469L56.8584,36.41357a7.9843,7.9843,0,0,1,14.28271,0l35.00635,70.01319a7.9842,7.9842,0,0,1-7.14111,11.55469ZM63.99951,34a5.87582,5.87582,0,0,0-5.352,3.30811h0L23.64062,107.32129a5.984,5.984,0,0,0,5.35254,8.66016H99.00635a5.98372,5.98372,0,0,0,5.35205-8.66016L69.35205,37.30811A5.87568,5.87568,0,0,0,63.99951,34Zm-6.24658,2.86084h0Z"/><path class="cls-3" d="M64,91.76a5.04,5.04,0,1,0,5.04,5.04A5.03988,5.03988,0,0,0,64,91.76Zm0-33.6a6.17563,6.17563,0,0,0-5.89452,8.0176L64,85.04l5.89448-18.8624A6.17562,6.17562,0,0,0,64,58.16Z"/><path class="cls-3" d="M64,85.87988a.99988.99988,0,0,1-.95459-.70166l-5.89453-18.8623a7.17567,7.17567,0,1,1,13.69824,0l-5.89453,18.8623A.99988.99988,0,0,1,64,85.87988ZM64,59a5.17546,5.17546,0,0,0-4.93994,6.71924L64,81.52734l4.93994-15.8081A5.17546,5.17546,0,0,0,64,59Z"/><path class="cls-3" d="M64.04,103a6.04,6.04,0,1,1,6.04-6.04A6.04678,6.04678,0,0,1,64.04,103Zm0-10.08008a4.04,4.04,0,1,0,4.04,4.04A4.0448,4.0448,0,0,0,64.04,92.91992Z"/></svg>